<?xml version="1.0" encoding="utf-8"?>
<svg version="1.1" id="NumS" x="0px" y="0px" viewBox="0 0 1024 1024" style="enable-background:new 0 0 1024 1024;" xmlns="http://www.w3.org/2000/svg">
  <style type="text/css">
	.st0{fill:#182549;}
	.st1{fill:#0078BA;}
	.st2{fill:#0CD3F4;}
	.st3{fill:none;}
</style>
  <polygon class="st0" points="517.2 183.986 569.921 212.641 570.912 154.215 626.238 124.071 626.361 65.148 517.2 124.566" style=""/>
  <polygon class="st1" points="461.874 213.509 517.2 183.986 517.2 124.566 408.162 65.148 408.162 124.566 461.751 153.719" style=""/>
  <polygon class="st2" points="517.2 5.729 408.162 65.148 517.2 124.566 626.361 65.148" style=""/>
  <polygon class="st0" points="735.647 537.768 735.647 243.405 789.111 214.253 789.111 154.215 679.082 213.137 679.082 477.978" style=""/>
  <polygon class="st2" points="679.95 94.796 570.912 154.215 679.082 213.137 789.111 154.215" style=""/>
  <polygon class="st0" points="408.162 474.008 407.169 242.784 461.874 213.509 461.751 153.719 352.589 213.137 352.589 351.078" style=""/>
  <polygon class="st1" points="305.575 247.126 352.589 351.078 352.589 213.137 243.426 153.594 243.426 213.385" style=""/>
  <polygon class="st2" points="353.581 94.796 243.426 153.594 352.589 213.137 461.751 153.719" style=""/>
  <polygon class="st1" points="570.912 154.215 569.921 212.641 626.361 243.405 626.361 422.033 626.361 422.033 679.082 477.978 679.082 213.137" style=""/>
  <g transform="matrix(1.240473, 0, 0, 1.240473, -117.799004, -123.651672)" style="">
    <polygon class="st0" points="512,392 599.9,439.9 599.9,295.9 511.9,343.8 &#9;"/>
  </g>
  <polygon class="st1" points="408.162 422.033 517.324 362.614 517.2 302.823 407.169 242.784" style=""/>
  <polygon class="st2" points="517.2 183.986 407.169 242.784 517.2 302.823 626.361 243.405" style=""/>
  <polygon class="st1" points="844.685 653.257 844.685 302.823 735.647 243.405 735.647 537.768" style=""/>
  <polygon class="st2" points="844.685 183.986 735.524 243.405 844.685 302.823 953.846 243.405" style=""/>
  <polygon class="st0" points="408.162 474.008 305.575 247.126 196.414 306.544 408.162 775.816" style=""/>
  <polygon class="st0" points="193.809 526.976 189.839 838.087 295.031 780.777" style=""/>
  <polygon class="st2" points="517.324 362.614 408.162 422.033 517.324 481.452 626.361 422.033" style=""/>
  <polygon class="st0" points="953.971 777.057 953.846 243.405 844.685 302.823 844.685 653.257 626.361 422.033 517.324 481.452 517.324 1016.467 628.346 955.932 627.107 602.77 843.692 838.212" style=""/>
  <polygon class="st1" points="408.162 422.033 408.162 775.816 196.414 306.544 80.677 243.776 80.677 778.668 189.839 838.087 193.684 526.853 353.581 927.276 517.324 1016.467 517.324 481.452" style=""/>
  <polygon class="st2" points="189.839 184.235 80.677 243.776 196.414 306.544 305.575 247.126" style=""/>
  <g transform="matrix(1.240473, 0, 0, 1.240473, -117.799004, -123.651672)" style="">
    <polygon class="st1" points="600.5,585.6 600.8,680.2 775.1,775.4 &#9;"/>
  </g>
  <rect class="st3" width="1016.812" height="1016.812" y="-1" style="" x="8"/>
</svg>