<?xml version="1.0" encoding="utf-8"?>
<svg fill="none" fill-rule="evenodd" stroke="black" stroke-width="0.501" stroke-linejoin="bevel" stroke-miterlimit="10" font-family="Times New Roman" font-size="16" style="font-variant-ligatures:none" version="1.1" overflow="visible" width="255.845pt" height="123.322pt" viewBox="0 -123.322 255.845 123.322" xmlns="http://www.w3.org/2000/svg">
  <g style="" transform="matrix(0.134427, 0, 0, 0.134427, 122.473747, -169.608475)">
    <g transform="matrix(1.209119, 0, 0, 1.209119, -1142.510132, 276.346039)" style="">
      <polygon class="st0" points="512,238.6 539,253.3 539.5,223.3 567.9,207.9 568,177.6 512,208.1 &#9;&#9;" style="fill: rgb(24, 37, 73);"/>
      <polygon class="st1" points="483.6,253.8 512,238.6 512,208.1 456,177.6 456,208.1 483.5,223.1 &#9;&#9;" style="fill: rgb(0, 120, 186);"/>
      <polygon class="st2" points="512,147.1 456,177.6 512,208.1 568,177.6 &#9;&#9;" style="fill: rgb(12, 211, 244);"/>
      <polygon class="st0" points="624,420.1 624,269.1 651.4,254.1 651.4,223.4 595,253.5 595,389.4 &#9;&#9;" style="fill: rgb(24, 37, 73);"/>
      <polygon class="st2" points="595.5,192.9 539.5,223.4 595,253.5 651.4,223.4 &#9;&#9;" style="fill: rgb(12, 211, 244);"/>
      <polygon class="st0" points="456,387.4 455.5,268.8 483.6,253.8 483.5,223.1 427.5,253.5 427.5,324.3 &#9;&#9;" style="fill: rgb(24, 37, 73);"/>
      <polygon class="st1" points="403.4,271 427.5,324.3 427.5,253.5 371.5,223 371.5,253.7 &#9;&#9;" style="fill: rgb(0, 120, 186);"/>
      <polygon class="st2" points="428,192.9 371.5,223 427.5,253.5 483.5,223.1 &#9;&#9;" style="fill: rgb(12, 211, 244);"/>
      <polygon class="st1" points="539.5,223.3 539,253.3 568,269.1 568,360.7 568,360.7 595,389.4 595,253.5 &#9;&#9;" style="fill: rgb(0, 120, 186);"/>
      <g>
        <polygon class="st0" points="512,330.2 568,360.7 568,269.1 512,299.6 &#9;&#9;&#9;" style="fill: rgb(24, 37, 73);"/>
      </g>
      <polygon class="st1" points="456,360.7 512,330.2 512,299.6 455.5,268.8 &#9;&#9;" style="fill: rgb(0, 120, 186);"/>
      <polygon class="st2" points="512,238.6 455.5,268.8 512,299.6 568,269.1 &#9;&#9;" style="fill: rgb(12, 211, 244);"/>
      <polygon class="st1" points="679.9,479.3 679.9,299.6 624,269.1 624,420.1 &#9;&#9;" style="fill: rgb(0, 120, 186);"/>
      <polygon class="st2" points="679.9,238.6 624,269.1 679.9,299.6 735.9,269.1 &#9;&#9;" style="fill: rgb(12, 211, 244);"/>
      <polygon class="st0" points="456,387.4 403.4,271 347.4,301.5 456,542.2 &#9;&#9;" style="fill: rgb(24, 37, 73);"/>
      <polygon class="st0" points="346,414.6 344,574.2 398,544.8 &#9;&#9;" style="fill: rgb(24, 37, 73);"/>
      <polygon class="st2" points="512,330.2 456,360.7 512,391.2 568,360.7 &#9;&#9;" style="fill: rgb(12, 211, 244);"/>
      <polygon class="st0" points="736,542.9 735.9,269.1 679.9,299.6 679.9,479.3 568,360.7 512,391.2 512,665.6 569,634.6 &#10;&#9;&#9;&#9;568.3,453.4 679.4,574.2 &#9;&#9;" style="fill: rgb(24, 37, 73);"/>
      <polygon class="st1" points="456,360.7 456,542.2 347.4,301.5 288,269.2 288,543.7 344,574.2 346,414.5 428,619.9 512,665.6 &#10;&#9;&#9;&#9;512,391.2 &#9;&#9;" style="fill: rgb(0, 120, 186);"/>
      <polygon class="st2" points="344,238.8 288,269.2 347.4,301.5 403.4,271 &#9;&#9;" style="fill: rgb(12, 211, 244);"/>
      <g>
        <polygon class="st1" points="568.3,453.4 568.5,513.6 679.4,574.2 &#9;&#9;&#9;" style="fill: rgb(0, 120, 186);"/>
      </g>
    </g>
    <g transform="matrix(1.607107, 0, 0, 1.607107, -540.149231, -475.222321)" style="">
      <path class="st0" d="M 388.628 851.186 L 353.987 851.186 L 286.742 740.669 L 286.742 851.186 L 252.1 851.186 L 252.1 683.133 L 286.742 683.133 L 354.227 793.889 L 354.227 683.133 L 388.628 683.133 L 388.628 851.186 Z" style="fill: rgb(24, 37, 73);"/>
      <path class="st0" d="M 488.358 838.48 C 480.087 848.429 468.699 853.463 454.196 853.463 C 440.77 853.463 430.582 849.628 423.51 841.956 C 416.437 834.285 412.841 823.017 412.722 808.154 L 412.722 726.404 L 446.045 726.404 L 446.045 807.195 C 446.045 820.26 451.918 826.733 463.785 826.733 C 475.052 826.733 482.844 822.777 487.039 814.986 L 487.039 726.524 L 520.482 726.524 L 520.482 851.306 L 489.077 851.306 L 488.358 838.48 Z" style="fill: rgb(24, 37, 73);"/>
      <path class="st0" d="M 577.898 726.285 L 578.977 740.189 C 587.847 729.401 599.834 723.887 614.817 723.887 C 630.879 723.887 641.907 730.24 647.9 742.946 C 656.651 730.24 669.117 723.887 685.419 723.887 C 698.964 723.887 709.032 727.843 715.625 735.754 C 722.218 743.665 725.574 755.532 725.574 771.355 L 725.574 851.066 L 692.131 851.066 L 692.131 771.474 C 692.131 764.402 690.693 759.248 687.936 756.012 C 685.179 752.775 680.264 751.097 673.312 751.097 C 663.363 751.097 656.411 755.892 652.575 765.361 L 652.695 851.066 L 619.372 851.066 L 619.372 771.594 C 619.372 764.402 617.934 759.128 615.057 755.892 C 612.18 752.655 607.385 751.097 600.553 751.097 C 591.083 751.097 584.251 755.053 580.056 762.844 L 580.056 851.066 L 546.733 851.066 L 546.733 726.285 L 577.898 726.285 Z" style="fill: rgb(24, 37, 73);"/>
      <path class="st1" d="M 840.406 807.075 C 840.406 800.482 838.129 795.568 833.454 791.972 C 828.779 788.495 820.509 784.78 808.522 780.944 C 796.535 777.108 787.066 773.272 779.994 769.437 C 760.935 759.128 751.345 745.224 751.345 727.843 C 751.345 718.733 753.863 710.702 759.017 703.51 C 764.171 696.438 771.483 690.804 781.072 686.848 C 790.662 682.893 801.45 680.855 813.317 680.855 C 825.303 680.855 835.971 683.013 845.441 687.328 C 854.791 691.643 862.102 697.756 867.257 705.787 C 872.411 713.699 875.048 722.689 875.048 732.757 L 840.526 732.757 C 840.526 725.086 838.129 719.093 833.214 714.777 C 828.42 710.462 821.587 708.424 812.837 708.424 C 804.327 708.424 797.854 710.222 793.059 713.818 C 788.384 717.414 785.987 722.089 785.987 727.963 C 785.987 733.477 788.744 738.032 794.258 741.747 C 799.772 745.463 807.803 748.939 818.591 752.176 C 838.249 758.049 852.633 765.481 861.623 774.231 C 870.613 782.982 875.168 793.889 875.168 806.955 C 875.168 821.459 869.654 832.846 858.626 841.117 C 847.599 849.388 832.855 853.463 814.156 853.463 C 801.21 853.463 789.463 851.066 778.795 846.391 C 768.127 841.716 760.096 835.124 754.462 826.973 C 748.828 818.702 746.071 809.232 746.071 798.325 L 780.833 798.325 C 780.833 816.904 791.86 826.134 814.036 826.134 C 822.307 826.134 828.66 824.456 833.334 821.099 C 838.129 817.743 840.406 813.068 840.406 807.075 Z" style="fill: rgb(0, 120, 186);"/>
    </g>
  </g>
</svg>