<?xml version="1.0" encoding="utf-8"?>
<!-- Generator: Adobe Illustrator 24.1.3, SVG Export Plug-In . SVG Version: 6.00 Build 0)  -->
<svg version="1.1" id="NumS" xmlns="http://www.w3.org/2000/svg" xmlns:xlink="http://www.w3.org/1999/xlink" x="0px" y="0px"
	 viewBox="0 0 1024 1024" style="enable-background:new 0 0 1024 1024;" xml:space="preserve">
<style type="text/css">
	.st0{fill:#182549;}
	.st1{fill:#0078BA;}
	.st2{fill:#0CD3F4;}
	.st3{fill:none;}
</style>
<polygon class="st0" points="511.9,248 554.4,271.1 555.2,224 599.8,199.7 599.9,152.2 511.9,200.1 "/>
<polygon class="st1" points="467.3,271.8 511.9,248 511.9,200.1 424,152.2 424,200.1 467.2,223.6 "/>
<polygon class="st2" points="511.9,104.3 424,152.2 511.9,200.1 599.9,152.2 "/>
<polygon class="st0" points="688,533.2 688,295.9 731.1,272.4 731.1,224 642.4,271.5 642.4,485 "/>
<polygon class="st2" points="643.1,176.1 555.2,224 642.4,271.5 731.1,224 "/>
<polygon class="st0" points="424,481.8 423.2,295.4 467.3,271.8 467.2,223.6 379.2,271.5 379.2,382.7 "/>
<polygon class="st1" points="341.3,298.9 379.2,382.7 379.2,271.5 291.2,223.5 291.2,271.7 "/>
<polygon class="st2" points="380,176.1 291.2,223.5 379.2,271.5 467.2,223.6 "/>
<polygon class="st1" points="555.2,224 554.4,271.1 599.9,295.9 599.9,439.9 599.9,439.9 642.4,485 642.4,271.5 "/>
<g>
	<polygon class="st0" points="512,392 599.9,439.9 599.9,295.9 511.9,343.8 	"/>
</g>
<polygon class="st1" points="424,439.9 512,392 511.9,343.8 423.2,295.4 "/>
<polygon class="st2" points="511.9,248 423.2,295.4 511.9,343.8 599.9,295.9 "/>
<polygon class="st1" points="775.9,626.3 775.9,343.8 688,295.9 688,533.2 "/>
<polygon class="st2" points="775.9,248 687.9,295.9 775.9,343.8 863.9,295.9 "/>
<polygon class="st0" points="424,481.8 341.3,298.9 253.3,346.8 424,725.1 "/>
<polygon class="st0" points="251.2,524.5 248,775.3 332.8,729.1 "/>
<polygon class="st2" points="512,392 424,439.9 512,487.8 599.9,439.9 "/>
<polygon class="st0" points="864,726.1 863.9,295.9 775.9,343.8 775.9,626.3 599.9,439.9 512,487.8 512,919.1 601.5,870.3 
	600.5,585.6 775.1,775.4 "/>
<polygon class="st1" points="424,439.9 424,725.1 253.3,346.8 160,296.2 160,727.4 248,775.3 251.1,524.4 380,847.2 512,919.1 
	512,487.8 "/>
<polygon class="st2" points="248,248.2 160,296.2 253.3,346.8 341.3,298.9 "/>
<g>
	<polygon class="st1" points="600.5,585.6 600.8,680.2 775.1,775.4 	"/>
</g>
<rect class="st3" width="1024" height="1024"/>
</svg>
